<?xml version="1.0" standalone="no"?>
<!DOCTYPE svg PUBLIC "-//W3C//DTD SVG 20010904//EN"
 "http://www.w3.org/TR/2001/REC-SVG-20010904/DTD/svg10.dtd">
<svg version="1.0" xmlns="http://www.w3.org/2000/svg"
 width="512.000000pt" height="512.000000pt" viewBox="0 0 512.000000 512.000000"
 preserveAspectRatio="xMidYMid meet">
<metadata>
Created by potrace 1.11, written by Peter Selinger 2001-2013
</metadata>
<g transform="translate(0.000000,512.000000) scale(0.100000,-0.100000)"
fill="#000000" stroke="none">
<path d="M1275 4744 c-326 -32 -593 -158 -815 -383 -190 -192 -304 -405 -354
-661 -88 -457 95 -975 553 -1565 339 -436 803 -892 1371 -1346 262 -209 519
-399 539 -399 29 0 418 295 691 524 582 488 1045 969 1343 1394 220 313 359
602 423 877 24 106 27 140 27 285 0 179 -10 244 -63 401 -119 356 -407 657
-752 787 -264 99 -512 114 -778 47 -355 -89 -663 -337 -833 -672 -28 -56 -55
-103 -58 -103 -3 0 -19 30 -34 66 -15 36 -60 114 -99 172 -191 287 -509 499
-837 556 -92 16 -260 26 -324 20z m1575 -1269 l0 -275 343 0 c188 0 348 0 355
0 9 0 12 -69 12 -310 l0 -310 -355 0 -355 0 0 -745 0 -745 -290 0 -290 0 0
745 0 745 -350 0 -350 0 0 310 0 310 350 0 350 0 0 275 0 275 290 0 290 0 0
-275z"/>
</g>
</svg>
